<svg data-name="Группа 7" xmlns="http://www.w3.org/2000/svg" viewBox="0 0 277.14 63.69"><path d="M19.27 63.36l4.69-12.78a.26.26 0 0 1 .28-.2h.58c.18 0 .29.06.32.18l4.63 12.78c0 .11 0 .18-.14.18h-.42c-.13 0-.2 0-.23-.14l-1.43-4a.16.16 0 0 0-.18-.12h-5.7a.15.15 0 0 0-.17.12l-1.47 4a.17.17 0 0 1-.19.13h-.45c-.1.01-.16-.08-.12-.15zm7.8-4.76c.14 0 .16-.07.12-.18l-2.57-6.9c-.08-.23-.17-.23-.26 0l-2.53 6.91c-.05.12 0 .14.09.14zm28.24 4.92h-.5c-.12 0-.16 0-.21-.16l-2.51-6c0-.12-.14-.18-.37-.18H47.9c-.16 0-.22.08-.22.2v5.89c0 .15 0 .2-.17.2h-.46c-.14 0-.18 0-.18-.16V50.56c0-.14 0-.18.16-.18h4.59c2.55 0 4 1.1 4 3.26a3.33 3.33 0 0 1-2.69 3.4c-.07 0-.09.07-.07.12l2.58 6.11a.17.17 0 0 1-.13.25zm-.53-9.76c0-1.8-1.06-2.67-3.2-2.67h-3.7c-.14 0-.2 0-.2.14v5.14c0 .1 0 .16.13.16h3.16c2.53 0 3.81-.78 3.81-2.77zm27.35-.08c0 .08 0 .12-.09.12l-.63.07c-.08 0-.11 0-.13-.12a3.61 3.61 0 0 0-3.61-2.8c-2.88 0-4.43 2.11-4.43 6s1.52 5.95 4.58 5.95a3.68 3.68 0 0 0 3.71-2.72.08.08 0 0 1 .11 0l.6.18v.12a4.61 4.61 0 0 1-4.53 3.2c-3.41 0-5.35-2.42-5.35-6.69s1.94-6.79 5.25-6.79c2.19.01 4.31 1.65 4.52 3.48zm18.25 3.36a.1.1 0 0 0-.11.11v6.21c0 .11-.05.16-.18.16h-.47c-.13 0-.16 0-.16-.18V50.56c0-.14 0-.18.16-.18h.49c.13 0 .16 0 .16.18v5.61c0 .14 0 .16.16.16h6.86c.11 0 .14 0 .14-.14v-5.65c0-.1 0-.16.14-.16h.52c.12 0 .16 0 .16.18v12.78c0 .13-.06.18-.16.18h-.47c-.12 0-.18 0-.18-.16v-6.2c0-.09 0-.12-.12-.12zm26.7-6.61c.12 0 .16 0 .16.18v12.7c0 .17 0 .21-.22.21h-.4c-.16 0-.2 0-.2-.18V50.56c0-.14 0-.18.16-.18zm17.15.08c0-.09 0-.13.12-.13h9.11c.09 0 .12 0 .12.13v.46c0 .1 0 .12-.14.12h-3.77c-.14 0-.17 0-.17.16v12.09c0 .14 0 .18-.16.18h-.48c-.14 0-.18 0-.18-.18V51.25c0-.14 0-.16-.17-.16h-4.14c-.11 0-.14 0-.14-.12zm26.5-.08h7.34c.09 0 .13 0 .13.13v.46c0 .1 0 .12-.14.12h-6.51c-.13 0-.16 0-.16.16v5.13c0 .11 0 .13.16.13h5.07c.09 0 .12 0 .12.12v.46c0 .11 0 .12-.14.12h-5.09c-.13 0-.16 0-.16.16v5.26c0 .14 0 .16.16.16h6.77c.11 0 .14 0 .14.12v.47c0 .09 0 .13-.12.13h-7.61c-.12 0-.16 0-.16-.18V50.56c.09-.13.09-.13.2-.13zm33.21 3.25c0 .08 0 .12-.09.12l-.63.07c-.07 0-.11 0-.13-.12a3.6 3.6 0 0 0-3.6-2.8c-2.89 0-4.44 2.11-4.44 6s1.57 6 4.57 6a3.67 3.67 0 0 0 3.71-2.72.08.08 0 0 1 .11 0l.6.18v.12a4.6 4.6 0 0 1-4.52 3.2c-3.42 0-5.36-2.42-5.36-6.69s1.94-6.79 5.25-6.79c2.21-.04 4.32 1.6 4.53 3.43zm16.14-3.17c0-.09 0-.13.13-.13h9.11c.08 0 .12 0 .12.13v.46c0 .1 0 .12-.14.12h-3.77c-.14 0-.18 0-.18.16v12.09c0 .14 0 .18-.15.18h-.48c-.14 0-.18 0-.18-.18V51.25c0-.14 0-.16-.18-.16h-4.13c-.11 0-.15 0-.15-.12zm29.9.44c-1.92 0-3.23 1-3.23 2.71 0 .69.26 1.75 2.16 2.44l2.44.89c2.08.76 2.84 1.82 2.84 3.31 0 2.16-1.64 3.39-4.31 3.39a4.94 4.94 0 0 1-4.39-2.17c-.09-.13-.07-.23.11-.36l.19-.14c.18-.12.27-.1.36 0a4.08 4.08 0 0 0 3.73 1.93c2.1 0 3.5-.72 3.5-2.62 0-1-.41-1.77-2.33-2.51l-2.68-1a3.25 3.25 0 0 1-2.44-3.11c0-2.22 1.69-3.47 4.11-3.47a5 5 0 0 1 3.84 1.7c.07.07.1.16 0 .24l-.39.36c-.09.07-.13 0-.23-.09a4.18 4.18 0 0 0-3.28-1.5zM20.35 34.69H0v-.44a23.5 23.5 0 0 0 5.5-.35 1.13 1.13 0 0 0 .61-.51 4.16 4.16 0 0 0 .18-1.59V9.31a4.18 4.18 0 0 0-.18-1.57c-.05-.12-.24-.24-.56-.36A19.69 19.69 0 0 0 0 6.9v-.39h17.86a10.77 10.77 0 0 1 7.51 2.53 5.68 5.68 0 0 1 2.25 4.15 5.27 5.27 0 0 1-1.34 3.93c-1.19 1.2-3.44 2-6.75 2.54 3.48.43 6 1.44 7.66 3a6.53 6.53 0 0 1 2 4.94 6.3 6.3 0 0 1-2.27 4.59 9.14 9.14 0 0 1-6.57 2.5zm-8.73-15.21h4a7.63 7.63 0 0 0 4.7-1.18c1.22-.94 1.82-2.51 1.82-4.71q0-3.69-1.47-5.19t-5-1.5h-2.05a5.42 5.42 0 0 0-1.35.13.75.75 0 0 0-.54.58 8.73 8.73 0 0 0-.11 1.71zm5.17.4h-5.17V31.8a5.45 5.45 0 0 0 .19 1.63 1.1 1.1 0 0 0 .66.55 4.38 4.38 0 0 0 1.31.24h3.79a5.65 5.65 0 0 0 4.65-1.79 7.36 7.36 0 0 0 1.4-4.8A8.64 8.64 0 0 0 22 22.02a6.28 6.28 0 0 0-5.17-2.14zm29.94 4.98h-8.41l-1.34 3.86a7.49 7.49 0 0 0-.52 2.5 2.47 2.47 0 0 0 1.22 2.33 7.06 7.06 0 0 0 3.45.7v.44H30.04v-.44a5.44 5.44 0 0 0 4.67-2.28 24.53 24.53 0 0 0 2.36-5.25l7.38-20.56h.87l9.43 25.64c.44 1.19.87 1.9 1.31 2.12a12.78 12.78 0 0 0 3.93.33v.44H43.88v-.44a27.73 27.73 0 0 0 4.5-.24c.81-.16 1.22-.49 1.22-1l-.09-.44zm-.21-.43l-4-11.13-3.98 11.13zm.5-19.44L41.83 0h4.23l1.84 4.94zm28.29 3.66l2.84-2.49v9.52l-.35-.13a11.36 11.36 0 0 0-3.18-6.41 8 8 0 0 0-5.85-2.59 7.21 7.21 0 0 0-3.93 1.05 4.1 4.1 0 0 0-2 3.71 4.46 4.46 0 0 0 2.22 3.84 19 19 0 0 0 6 2.22c3.58.87 5.91 1.7 7 2.49q2.7 2 2.7 6.54a8.25 8.25 0 0 1-2.8 6.67 8.52 8.52 0 0 1-5.72 2 12.13 12.13 0 0 1-4.6-.83 8.43 8.43 0 0 1-3.52-2.75q-2.61 3.45-2.75 3.58V23.02h.35a30.32 30.32 0 0 0 1.88 6 11.76 11.76 0 0 0 2 3.19q2.31 2.49 6.72 2.49a5.88 5.88 0 0 0 3.76-1.36 4.81 4.81 0 0 0 2-3.92 5.12 5.12 0 0 0-2.65-4.54 26.83 26.83 0 0 0-6.38-2.38 20.29 20.29 0 0 1-6.34-2.55 6.73 6.73 0 0 1-2.61-5.73 7.7 7.7 0 0 1 2.38-5.71 7.82 7.82 0 0 1 5.67-2.34 11 11 0 0 1 4.59.83 24.69 24.69 0 0 1 2.57 1.65zm33.58-2.14v12.45h-.62q-1-7.14-3.18-9.82A6.39 6.39 0 0 0 99.8 6.9a2.44 2.44 0 0 0-1 .09c-.11.09-.17.47-.17 1.14V31.8a4.81 4.81 0 0 0 .17 1.62 1.25 1.25 0 0 0 .62.37 8.94 8.94 0 0 0 2 .33c1 .09 2.33.13 4 .13v.44h-19v-.44c1.66 0 3 0 4-.13a9.18 9.18 0 0 0 2-.33 1.24 1.24 0 0 0 .68-.48 4.38 4.38 0 0 0 .15-1.51V8.17c0-.76-.09-1.17-.26-1.22a4.68 4.68 0 0 0-.92 0 6.31 6.31 0 0 0-5.19 2.19q-2.14 2.68-3.26 9.73h-.61V6.51zm30.12 21.92v1.44a9.21 9.21 0 0 1-.48 3.58 3.11 3.11 0 0 1-3.12 1.66q-3 0-4-2.27-.8-1.85-.79-7V24c0-1.54-.36-2.58-1.09-3.12a5.13 5.13 0 0 0-3.12-.81h-5.13V31.8a5.45 5.45 0 0 0 .15 1.66 1.1 1.1 0 0 0 .66.55 7.35 7.35 0 0 0 2 .24h3.25v.4h-17.67v-.44a23.5 23.5 0 0 0 5.5-.35 1.13 1.13 0 0 0 .61-.51 4.16 4.16 0 0 0 .18-1.59V9.27a3.82 3.82 0 0 0-.18-1.53 1 1 0 0 0-.56-.36 19.69 19.69 0 0 0-5.55-.48v-.39h17.86a10.73 10.73 0 0 1 7.51 2.54 5.68 5.68 0 0 1 2.22 4.15 5.41 5.41 0 0 1-1.75 4.16c-1.4 1.31-3.63 2.14-6.67 2.49a7.59 7.59 0 0 1 6.15 5.19 20.83 20.83 0 0 1 .75 6.46 5.69 5.69 0 0 0 .22 1.83 1 1 0 0 0 1.06.57c.62 0 1-.49 1.29-1.46a18.5 18.5 0 0 0 .35-4zm-17.68-8.83h4a7.56 7.56 0 0 0 4.7-1.19c1.21-.93 1.82-2.52 1.82-4.75q0-3.69-1.5-5.21t-5-1.52h-2.08a5.42 5.42 0 0 0-1.35.13.75.75 0 0 0-.54.55 7.81 7.81 0 0 0-.11 1.7zm29.82-10.33V31.8a4.55 4.55 0 0 0 .17 1.63 1.06 1.06 0 0 0 .52.35 17.82 17.82 0 0 0 5.2.48v.44h-17.2v-.44c1.25 0 2.33 0 3.25-.13a8.3 8.3 0 0 0 1.88-.33 1.19 1.19 0 0 0 .65-.48 4.28 4.28 0 0 0 .16-1.51V9.27a3.82 3.82 0 0 0-.18-1.53 1.06 1.06 0 0 0-.57-.36 17.69 17.69 0 0 0-5.19-.48v-.39h17.24v.39c-1.25 0-2.33 0-3.25.13a8.61 8.61 0 0 0-1.94.35l-.44.18q-.3.27-.3 1.71zm29.47 13.71q0 6.33-2.42 9.22a8.66 8.66 0 0 1-7 2.88 12.82 12.82 0 0 1-8.78-3.15q-4.28-3.75-4.28-10.79a15.28 15.28 0 0 1 4.33-11.22q3.72-3.76 8-3.76a8.17 8.17 0 0 1 3.58.74 9.93 9.93 0 0 1 3.57 3.15l2.15-4.11h.21v12.67l-.36-.18a12.85 12.85 0 0 0-3.1-9c-1.73-1.88-3.54-2.83-5.43-2.83a5.66 5.66 0 0 0-5.47 3.46q-1.65 3.53-1.66 10.58t1.8 10.49a5.81 5.81 0 0 0 5.47 3.56 8.22 8.22 0 0 0 6.39-2.45q2.67-2.88 2.67-9.26zm25 8.82V20.49h-12.48V31.8a4.47 4.47 0 0 0 .18 1.63 1.17 1.17 0 0 0 .59.37 8.06 8.06 0 0 0 1.85.33c.91.09 2 .13 3.19.13v.44h-17.11v-.44c1.25 0 2.33 0 3.25-.13a8.3 8.3 0 0 0 1.88-.33 1.19 1.19 0 0 0 .65-.48 4.38 4.38 0 0 0 .15-1.51V9.36a4.1 4.1 0 0 0-.17-1.58c-.06-.12-.26-.23-.59-.35a11.11 11.11 0 0 0-2-.35 26.51 26.51 0 0 0-3.21-.18v-.39h17.16v.39a16.59 16.59 0 0 0-5.11.53 1 1 0 0 0-.53.35 3.82 3.82 0 0 0-.22 1.58v10.39h12.52V9.36a3.63 3.63 0 0 0-.22-1.58c-.06-.12-.25-.23-.57-.35a10.55 10.55 0 0 0-2-.35 26.21 26.21 0 0 0-3.15-.18v-.39h17.16v.39c-1.31 0-2.39 0-3.23.13a8 8 0 0 0-2 .4l-.4.17a3 3 0 0 0-.3 1.76V31.8a4.81 4.81 0 0 0 .17 1.62 1 1 0 0 0 .53.35 17.69 17.69 0 0 0 5.19.48v.44h-17.06v-.44a17.23 17.23 0 0 0 5.1-.48 1.12 1.12 0 0 0 .57-.35 4.25 4.25 0 0 0 .21-1.62zm23-11.75v11.7a4.94 4.94 0 0 0 .14 1.53c.08.21.36.39.82.55a5.85 5.85 0 0 0 1.61.29h3.27c3.31 0 5.81-1 7.51-3s2.77-5.13 3.2-9.49h.57v13h-28.41v-.44a17.5 17.5 0 0 0 5.15-.48 1.11 1.11 0 0 0 .59-.46 4.38 4.38 0 0 0 .15-1.51V9.36a4.1 4.1 0 0 0-.17-1.58c-.06-.12-.25-.23-.57-.35a10.55 10.55 0 0 0-2-.35 26.52 26.52 0 0 0-3.19-.18v-.39h26.94v10.92h-.57a13.18 13.18 0 0 0-1.7-6.45q-2.26-4.08-6.4-4.08h-3.33a11.16 11.16 0 0 0-3 .42 1.09 1.09 0 0 0-.54.46 4.56 4.56 0 0 0-.16 1.57v10.26q4.51 0 5.61-.91c1.1-.93 1.86-3.44 2.3-7.52h.52v17.25h-.52q-.66-6-2.26-7.39c-.69-.67-2.56-.99-5.56-.99zm33.37 15.03l-9.3-25.73a3.52 3.52 0 0 0-1.35-2.1 13.54 13.54 0 0 0-4.1-.35v-.39h15.89v.39a19.58 19.58 0 0 0-4.13.29c-.74.19-1.11.57-1.11 1.16a3.3 3.3 0 0 0 .22 1l6.85 18.48 4.66-13.79a13 13 0 0 0 .73-3.68c0-2.3-1.5-3.46-4.49-3.46v-.39h11.3v.39a5.69 5.69 0 0 0-5.45 3.42c-.35.72-.87 2.08-1.57 4.06l-6.9 20.7z"/></svg>