<svg width="32" height="24" fill="none" xmlns="http://www.w3.org/2000/svg"><path d="M16.84 18.16c0-3.392 1.248-6.72 3.744-9.984 2.56-3.328 6.016-6.048 10.368-8.16l.48 1.344c-3.008 1.856-5.408 3.872-7.2 6.048-1.792 2.176-2.784 4.352-2.976 6.528 1.856-1.6 3.52-2.4 4.992-2.4.832 0 1.472.32 1.92.96.512.576.768 1.376.768 2.4 0 1.344-.384 2.72-1.152 4.128-.768 1.408-1.76 2.56-2.976 3.456-1.216.896-2.464 1.344-3.744 1.344-2.816 0-4.224-1.888-4.224-5.664zm-15.936 0c0-3.392 1.248-6.72 3.744-9.984 2.56-3.328 6.016-6.048 10.368-8.16l.48 1.344c-3.008 1.856-5.408 3.872-7.2 6.048-1.792 2.176-2.784 4.352-2.976 6.528 1.856-1.6 3.52-2.4 4.992-2.4.832 0 1.472.32 1.92.96.512.576.768 1.376.768 2.4 0 1.344-.384 2.72-1.152 4.128-.768 1.408-1.76 2.56-2.976 3.456-1.216.896-2.464 1.344-3.744 1.344-2.816 0-4.224-1.888-4.224-5.664z" fill="#897358"/></svg>