<svg width="30" height="30" fill="none" xmlns="http://www.w3.org/2000/svg"><path d="M27.702 7.07c-.954.422-1.966.7-3.002.822A5.245 5.245 0 0 0 27 5a10.448 10.448 0 0 1-3.32 1.269 5.228 5.228 0 0 0-8.908 4.767A14.843 14.843 0 0 1 3.997 5.574a5.21 5.21 0 0 0-.707 2.628c0 1.813.922 3.414 2.325 4.352a5.21 5.21 0 0 1-2.368-.654v.065a5.231 5.231 0 0 0 4.194 5.126c-.77.209-1.578.24-2.362.09a5.231 5.231 0 0 0 4.883 3.631 10.492 10.492 0 0 1-7.738 2.165 14.787 14.787 0 0 0 8.012 2.35c9.616 0 14.875-7.966 14.875-14.875 0-.225-.006-.452-.016-.675a10.619 10.619 0 0 0 2.609-2.706l-.002-.001z" fill="#333"/></svg>