<svg width="30" height="30" fill="none" xmlns="http://www.w3.org/2000/svg"><path d="M25.02 17.525c-.504-.468-.92-.75-1.084-1.2a.854.854 0 0 1-.059-.446c.023-.352.322-.809 2.32-3.451.832-1.102 1.916-2.432 1.916-3.428 0-.645-.263-.803-1.218-.803h-4.336c-.381 0-.64.522-.797.961-.164.44-.48 1.114-1.254 2.567-.809 1.523-1.893 2.859-2.344 3.07a.554.554 0 0 1-.686-.17c-.134-.164-.345-.451-.263-3.158.047-1.512.217-2.567-.1-3.211a1.11 1.11 0 0 0-.281-.322c-.451-.323-1.723-.44-2.813-.44s-1.927.123-2.343.246c-.416.123-.885.405-1.108.703-.146.194.252.094.639.27.234.105.545.27.656.545.469 1.219.569 2.185.31 3.908-.064.422-.134 1.084-.386 1.494-.14.229-.463.211-.557.182-.943-.287-1.675-1.524-2.414-2.97-.767-1.513-1.16-2.573-1.37-3.007-.212-.433-.534-.668-1.079-.668H2.48c-.305 0-.58.252-.58.528 0 .644 1.09 2.52 1.746 3.867a29.224 29.224 0 0 0 4.828 7.043c2.191 2.414 5.18 2.865 6.134 2.865.956 0 1.7-.035 1.952-.088a.857.857 0 0 0 .334-.146c.416-.323.34-.938.369-1.418.029-.492.082-1.143.41-1.524.305-.357.65-.457 1.09-.24.41.205.703.55 1.008.885.591.638 1.13 1.36 1.834 1.886.322.24.673.393 1.048.51.498.153.967.158 1.483.135.568-.023.996-.018 1.699-.018.703 0 1.623.03 1.94-.205.152-.117.351-.293.351-.662 0-.697-.715-1.857-3.105-4.09z" fill="#333"/></svg>