<svg width="20" height="20" viewBox="0 0 20 20" fill="none" xmlns="http://www.w3.org/2000/svg">
<path d="M9.99063 0.25C4.60938 0.25 0.25 4.61875 0.25 10C0.25 15.3813 4.60938 19.75 9.99063 19.75C15.3813 19.75 19.75 15.3813 19.75 10C19.75 4.61875 15.3813 0.25 9.99063 0.25ZM10 17.8C5.69219 17.8 2.2 14.3078 2.2 10C2.2 5.69219 5.69219 2.2 10 2.2C14.3078 2.2 17.8 5.69219 17.8 10C17.8 14.3078 14.3078 17.8 10 17.8Z" fill="#767676" fill-opacity="0.4"/>
<path d="M10.484 5.125H9.02148V10.975L14.1404 14.0453L14.8717 12.8453L10.484 10.2438V5.125Z" fill="#767676" fill-opacity="0.4"/>
</svg>
