<svg width="32" height="24" viewBox="0 0 32 24" fill="none" xmlns="http://www.w3.org/2000/svg">
<path d="M16.8398 18.1601C16.8398 14.7681 18.0878 11.4401 20.5838 8.17611C23.1438 4.84812 26.5998 2.12812 30.9518 0.0161133L31.4318 1.36012C28.4238 3.21612 26.0238 5.23212 24.2318 7.40812C22.4398 9.58412 21.4478 11.7601 21.2558 13.9361C23.1118 12.3361 24.7758 11.5361 26.2478 11.5361C27.0798 11.5361 27.7198 11.8561 28.1678 12.4961C28.6798 13.0721 28.9358 13.8721 28.9358 14.8961C28.9358 16.2401 28.5518 17.6161 27.7838 19.0241C27.0158 20.4321 26.0238 21.5841 24.8078 22.4801C23.5918 23.3761 22.3438 23.8241 21.0638 23.8241C18.2478 23.8241 16.8398 21.9361 16.8398 18.1601ZM0.903809 18.1601C0.903809 14.7681 2.15181 11.4401 4.64781 8.17611C7.20781 4.84812 10.6638 2.12812 15.0158 0.0161133L15.4958 1.36012C12.4878 3.21612 10.0878 5.23212 8.29581 7.40812C6.50381 9.58412 5.51181 11.7601 5.31981 13.9361C7.17581 12.3361 8.83981 11.5361 10.3118 11.5361C11.1438 11.5361 11.7838 11.8561 12.2318 12.4961C12.7438 13.0721 12.9998 13.8721 12.9998 14.8961C12.9998 16.2401 12.6158 17.6161 11.8478 19.0241C11.0798 20.4321 10.0878 21.5841 8.87181 22.4801C7.65581 23.3761 6.40781 23.8241 5.12781 23.8241C2.31181 23.8241 0.903809 21.9361 0.903809 18.1601Z" fill="#897358"/>
</svg>
