<svg width="30" height="30" viewBox="0 0 30 30" fill="none" xmlns="http://www.w3.org/2000/svg">
<path d="M25.0195 17.5254C24.5156 17.0566 24.0996 16.7754 23.9355 16.3242C23.877 16.166 23.8594 16.0723 23.877 15.8789C23.9004 15.5273 24.1992 15.0703 26.1973 12.4277C27.0293 11.3262 28.1133 9.99609 28.1133 9C28.1133 8.35547 27.8496 8.19727 26.8945 8.19727H22.5586C22.1777 8.19727 21.9199 8.71875 21.7617 9.1582C21.5977 9.59766 21.2812 10.2715 20.5078 11.7246C19.6992 13.248 18.6152 14.584 18.1641 14.7949C18.0352 14.8535 17.9531 14.8535 17.8418 14.8418C17.7715 14.8359 17.6191 14.7949 17.4785 14.625C17.3438 14.4609 17.1328 14.1738 17.2148 11.4668C17.2617 9.95508 17.4316 8.90039 17.1152 8.25586C17.0508 8.12695 16.9102 7.99219 16.834 7.93359C16.3828 7.61133 15.1113 7.49414 14.0215 7.49414C12.9316 7.49414 12.0938 7.61719 11.6777 7.74023C11.2617 7.86328 10.793 8.14453 10.5703 8.44336C10.4238 8.63672 10.8223 8.53711 11.209 8.71289C11.4434 8.81836 11.7539 8.98242 11.8652 9.25781C12.334 10.4766 12.4336 11.4434 12.1758 13.166C12.1113 13.5879 12.041 14.25 11.7891 14.6602C11.6484 14.8887 11.3262 14.8711 11.2324 14.8418C10.2891 14.5547 9.55664 13.3184 8.81836 11.8711C8.05078 10.3594 7.6582 9.29883 7.44727 8.86523C7.23633 8.43164 6.91406 8.19727 6.36914 8.19727H2.47852C2.17383 8.19727 1.89844 8.44922 1.89844 8.72461C1.89844 9.36914 2.98828 11.2441 3.64453 12.5918C4.82812 15.0176 6.38086 17.3613 8.47266 19.6348C10.6641 22.0488 13.6523 22.5 14.6074 22.5C15.5625 22.5 16.3066 22.4648 16.5586 22.4121C16.6758 22.3887 16.7988 22.3359 16.8926 22.2656C17.3086 21.9434 17.2324 21.3281 17.2617 20.8477C17.291 20.3555 17.3438 19.7051 17.6719 19.3242C17.9766 18.9668 18.3223 18.8672 18.7617 19.084C19.1719 19.2891 19.4648 19.6348 19.7695 19.9688C20.3613 20.6074 20.9004 21.3281 21.6035 21.8555C21.9258 22.0957 22.2773 22.248 22.6523 22.3652C23.1504 22.5176 23.6191 22.5234 24.1348 22.5C24.7031 22.4766 25.1309 22.4824 25.834 22.4824C26.5371 22.4824 27.457 22.5117 27.7734 22.2773C27.9258 22.1602 28.125 21.9844 28.125 21.6152C28.125 20.918 27.4102 19.7578 25.0195 17.5254Z" fill="#333333"/>
</svg>
